{"title":"A Beginner's Guide to Endings - Guida alla Morte per Principiant","uid":11753432,"size":1679805624,"categoryP":"video","categoryS":"movies","magnet":"?xt=urn:btih:f1aea91ea73b8abcac0ed32636228ea4adf3e660&amp;dn=A+Beginner%27s+Guide+to+Endings+-+Guida+alla+Morte+per+Principiant&amp;tr=udp%3A%2F%2Ftracker.openbittorrent.com%3A80&amp;tr=udp%3A%2F%2Fopen.demonii.com%3A1337&amp;tr=udp%3A%2F%2Ftracker.coppersurfer.tk%3A6969&amp;tr=udp%3A%2F%2Fexodus.desync.com%3A6969","seeders":11,"leechers":2,"uploader":"robbyrs4","files":5,"time":1426281271,"description":"A Beginner's Guide to Endings - Guida alla Morte per Principianti   (2010).BRrip.XviD - Italian english.Ac3 - 5.1 - Sub Ita.MIRCrew\n\n\nGuida alla Morte per Principianti - A Beginner's Guide to Endings (2010).BRrip.XviD - Italian English.Ac3 - 5.1 - Sub Ita.MIRCrew\n\n\n\n[center]\n\n[color=red][b][img]http://s19.postimg.org/rr1b4yhxv/banner_mircrew_2015.png[/img]\n\n[u]NO FOUND ONLY ORIGINAL RELEASE[/u]\n\nGuida alla Morte per Principianti - A Beginner's Guide to Endings (2010)\n\n[img]http://i.imgur.com/7534cXs.png[/img]\n\n\n[URL=http://www.imdb.com/title/tt1516002/][IMG]http://www.userlogos.org/files/logos/Sucka/imdb_new.png[/IMG][/URL]  \n\n[img]http://s19.postimg.org/vz5tzn42b/1_scheda.png[/img]\n\nNazione: Canada, U.S.A.\nAnno: 2010\nGenere: Commedia\nDurata: 90'\nRegia: Jonathan Sobol\n\n[img]http://s19.postimg.org/q8fnlww2b/1_cast.png[/img]\n\nTricia Helfer, J.K. Simmons, Scott Caan, Harvey Keitel, Wendy Crewson, Paulo Costanzo, Stephen McHattie, Jason Jones, James Preston Rogers\n\n[img]http://s19.postimg.org/okgi79i6r/1_trama.png[/img]. \n\nDopo aver saputo di avere solo pochi giorni di vita, tre fratelli intraprendono un viaggio per rimediare ad una vita di errori............................\n\n[img]http://s19.postimg.org/fzn6g380j/1_story.png[/img]\n\nUpon learning they only have a few days left to live, three brothers set off to reverse a lifetime of mistakes....................\n &lt;a href=&quot;\nhttp://s19.postimg.org/f3x67evyr/vlcsnap_2015_03_13_21h04m10s200.png[/img]&quot; rel=&quot;nofollow&quot; target=&quot;_NEW&quot;&gt;\nhttp://s19.postimg.org/f3x67evyr/vlcsnap_2015_03_13_21h04m10s200.png[/img]&lt;/a&gt;\n &lt;a href=&quot;\nhttp://s19.postimg.org/sm42jp843/vlcsnap_2015_03_13_21h04m19s26.png[/img]&quot; rel=&quot;nofollow&quot; target=&quot;_NEW&quot;&gt;\nhttp://s19.postimg.org/sm42jp843/vlcsnap_2015_03_13_21h04m19s26.png[/img]&lt;/a&gt;\n &lt;a href=&quot;\nhttp://s19.postimg.org/3u4gcgqxf/vlcsnap_2015_03_13_21h04m39s218.png[/img]&quot; rel=&quot;nofollow&quot; target=&quot;_NEW&quot;&gt;\nhttp://s19.postimg.org/3u4gcgqxf/vlcsnap_2015_03_13_21h04m39s218.png[/img]&lt;/a&gt;\n\n[IMG]http://img153.imageshack.us/img153/3158/restateinseedblood.gif[/img]\n\n\n[img]http://imgur.com/lvhU6.gif[/img]\n\n\n[img]http://s19.postimg.org/a2jaz9qvn/1_dati.png[/img]\n\n\n[spoiler]\nGeneral\nComplete name                            : Guida alla Morte per Principianti - A Beginner's Guide to Endings (2010).ita.eng.sub.MIRCrewGuida alla Morte per Principianti - A Beginner's Guide to Endings (2010).ita.eng.sub.MIRCrew.avi\nFormat                                   : AVI\nFormat/Info                              : Audio Video Interleave\nFile size                                : 1.56 GiB\nDuration                                 : 1h 32mn\nOverall bit rate                         : 2 417 Kbps\nMovie name                               : MIRCrew by robbyrs\nWriting application                      : VirtualDubMod 1.5.10.2 (build 2540/release)\nWriting library                          : VirtualDubMod build 2540/release\n\nVideo\nID                                       : 0\nFormat                                   : MPEG-4 Visual\nFormat profile                           : Simple@L3\nFormat settings, BVOP                    : No\nFormat settings, QPel                    : No\nFormat settings, GMC                     : No warppoints\nFormat settings, Matrix                  : Default (H.263)\nCodec ID                                 : XVID\nCodec ID/Hint                            : XviD\nDuration                                 : 1h 32mn\nBit rate                                 : 1 507 Kbps\nWidth                                    : 720 pixels\nHeight                                   : 404 pixels\nDisplay aspect ratio                     : 16:9\nFrame rate                               : 23.976 fps\nColor space                              : YUV\nChroma subsampling                       : 4:2:0\nBit depth                                : 8 bits\nScan type                                : Progressive\nCompression mode                         : Lossy\nBits/(Pixel*Frame)                       : 0.216\nStream size                              : 994 MiB (62%)\nWriting library                          : XviD 64\n\nAudio #1\nID                                       : 1\nFormat                                   : AC-3\nFormat/Info                              : Audio Coding 3\nMode extension                           : CM (complete main)\nCodec ID                                 : 2000\nDuration                                 : 1h 32mn\nBit rate mode                            : Constant\nBit rate                                 : 448 Kbps\nChannel(s)                               : 6 channels\nChannel positions                        : Front: L C R, Side: L R, LFE\nSampling rate                            : 48.0 KHz\nBit depth                                : 16 bits\nCompression mode                         : Lossy\nStream size                              : 296 MiB (19%)\nAlignment                                : Split accross interleaves\nInterleave, duration                     : 42 ms (1.00 video frame)\nInterleave, preload duration             : 500 ms\n\nAudio #2\nID                                       : 2\nFormat                                   : AC-3\nFormat/Info                              : Audio Coding 3\nMode extension                           : CM (complete main)\nCodec ID                                 : 2000\nDuration                                 : 1h 32mn\nBit rate mode                            : Constant\nBit rate                                 : 448 Kbps\nChannel(s)                               : 6 channels\nChannel positions                        : Front: L C R, Side: L R, LFE\nSampling rate                            : 48.0 KHz\nBit depth                                : 16 bits\nCompression mode                         : Lossy\nStream size                              : 296 MiB (19%)\nAlignment                                : Split accross interleaves\nInterleave, duration                     : 42 ms (1.00 video frame)\nInterleave, preload duration             : 500 ms\n\n\n[/spoiler]\n\n[/color][/b][/center]\n\n&amp;&amp;e4t67uk","torrent":{"xt":"urn:btih:f1aea91ea73b8abcac0ed32636228ea4adf3e660","amp;dn":"A+Beginner%27s+Guide+to+Endings+-+Guida+alla+Morte+per+Principiant","amp;tr":["udp%3A%2F%2Ftracker.openbittorrent.com%3A80","udp%3A%2F%2Fopen.demonii.com%3A1337","udp%3A%2F%2Ftracker.coppersurfer.tk%3A6969","udp%3A%2F%2Fexodus.desync.com%3A6969"],"infoHash":"f1aea91ea73b8abcac0ed32636228ea4adf3e660","infoHashBuffer":{"type":"Buffer","data":[241,174,169,30,167,59,138,188,172,14,211,38,54,34,142,164,173,243,230,96]},"announce":[],"urlList":[]}}